HIERARCHY
ROOT Hips
{
	OFFSET 0.000000 100.481300 0.000000
	CHANNELS 6 Xposition Yposition Zposition Xrotation Yrotation Zrotation 
	JOINT Spine
	{
		OFFSET -0.279200 12.230698 -2.892100
		CHANNELS 3 Xrotation Yrotation Zrotation
		JOINT Spine1
		{
			OFFSET -0.232667 10.192268 -1.242267
			CHANNELS 3 Xrotation Yrotation Zrotation
			JOINT Spine1_split
			{
				OFFSET -0.232667 10.192268 -1.242267
				CHANNELS 3 Xrotation Yrotation Zrotation
				JOINT Spine2
				{
					OFFSET -0.232667 10.192268 -1.242267
					CHANNELS 3 Xrotation Yrotation Zrotation
					JOINT Neck
					{
						OFFSET -0.418800 17.814194 8.416900
						CHANNELS 3 Xrotation Yrotation Zrotation
						JOINT Head
						{
							OFFSET 0.000000 7.031097 3.806800
							CHANNELS 3 Xrotation Yrotation Zrotation
							JOINT HeadTop_End
							{
								OFFSET 0.000000 24.646606 12.978600
								CHANNELS 3 Xrotation Yrotation Zrotation
								End Site
								{
									OFFSET 0.000000 0.000000 0.000000
								}
							}
						}
					}
					JOINT LeftShoulder
					{
						OFFSET 8.476499 7.247704 -3.868750
						CHANNELS 3 Xrotation Yrotation Zrotation
						JOINT LeftShoulder_split
						{
							OFFSET 8.476499 7.247704 -3.868750
							CHANNELS 3 Xrotation Yrotation Zrotation
							JOINT LeftArm
							{
								OFFSET 9.308998 -2.777710 0.208600
								CHANNELS 3 Xrotation Yrotation Zrotation
								JOINT LeftForeArm
								{
									OFFSET 29.972298 0.000000 0.000000
									CHANNELS 3 Xrotation Yrotation Zrotation
									JOINT LeftHand
									{
										OFFSET 26.026505 0.000000 0.000000
										CHANNELS 3 Xrotation Yrotation Zrotation
										JOINT LeftHandThumb1
										{
											OFFSET 12.240501 -7.147949 9.207150
											CHANNELS 3 Xrotation Yrotation Zrotation
											JOINT LeftHandThumb2
											{
												OFFSET 4.138618 -2.389435 2.389433
												CHANNELS 3 Xrotation Yrotation Zrotation
												JOINT LeftHandThumb3
												{
													OFFSET 2.726913 -1.574387 1.574386
													CHANNELS 3 Xrotation Yrotation Zrotation
													JOINT LeftHandThumb4
													{
														OFFSET 3.941010 -2.275345 2.275342
														CHANNELS 3 Xrotation Yrotation Zrotation
														End Site
														{
															OFFSET 0.000000 0.000000 0.000000
														}
													}
												}
											}
										}
										JOINT LeftHandIndex1
										{
											OFFSET 24.424698 -1.985611 5.953459
											CHANNELS 3 Xrotation Yrotation Zrotation
											JOINT LeftHandIndex2
											{
												OFFSET 6.426697 0.000000 0.000000
												CHANNELS 3 Xrotation Yrotation Zrotation
												JOINT LeftHandIndex3
												{
													OFFSET 5.337898 0.000000 0.000000
													CHANNELS 3 Xrotation Yrotation Zrotation
													JOINT LeftHandIndex4
													{
														OFFSET 4.409401 0.000000 0.000000
														CHANNELS 3 Xrotation Yrotation Zrotation
														End Site
														{
															OFFSET 0.000000 0.000000 0.000000
														}
													}
												}
											}
										}
										JOINT LeftHandMiddle1
										{
											OFFSET 23.810104 0.000000 0.000000
											CHANNELS 3 Xrotation Yrotation Zrotation
											JOINT LeftHandMiddle2
											{
												OFFSET 7.176498 0.000000 0.000000
												CHANNELS 3 Xrotation Yrotation Zrotation
												JOINT LeftHandMiddle3
												{
													OFFSET 6.774902 0.000000 0.000000
													CHANNELS 3 Xrotation Yrotation Zrotation
													JOINT LeftHandMiddle4
													{
														OFFSET 5.403328 0.000000 0.000000
														CHANNELS 3 Xrotation Yrotation Zrotation
														End Site
														{
															OFFSET 0.000000 0.000000 0.000000
														}
													}
												}
											}
										}
										JOINT LeftHandRing1
										{
											OFFSET 22.908401 -0.839279 -6.020567
											CHANNELS 3 Xrotation Yrotation Zrotation
											JOINT LeftHandRing2
											{
												OFFSET 6.337502 0.000000 0.000000
												CHANNELS 3 Xrotation Yrotation Zrotation
												JOINT LeftHandRing3
												{
													OFFSET 5.779297 0.000000 0.000000
													CHANNELS 3 Xrotation Yrotation Zrotation
													JOINT LeftHandRing4
													{
														OFFSET 4.965698 0.000000 0.000000
														CHANNELS 3 Xrotation Yrotation Zrotation
														End Site
														{
															OFFSET 0.000000 0.000000 0.000000
														}
													}
												}
											}
										}
										JOINT LeftHandPinky1
										{
											OFFSET 20.037003 -1.530319 -10.950146
											CHANNELS 3 Xrotation Yrotation Zrotation
											JOINT LeftHandPinky2
											{
												OFFSET 5.254700 0.000000 0.000000
												CHANNELS 3 Xrotation Yrotation Zrotation
												JOINT LeftHandPinky3
												{
													OFFSET 4.810204 0.000000 0.000000
													CHANNELS 3 Xrotation Yrotation Zrotation
													JOINT LeftHandPinky4
													{
														OFFSET 3.647202 0.000000 0.000000
														CHANNELS 3 Xrotation Yrotation Zrotation
														End Site
														{
															OFFSET 0.000000 0.000000 0.000000
														}
													}
												}
											}
										}
									}
								}
							}
						}
					}
					JOINT RightShoulder
					{
						OFFSET -7.570500 7.247704 -3.868750
						CHANNELS 3 Xrotation Yrotation Zrotation
						JOINT RightShoulder_split
						{
							OFFSET -7.570500 7.247704 -3.868750
							CHANNELS 3 Xrotation Yrotation Zrotation
							JOINT RightArm
							{
								OFFSET -9.308998 -2.777710 0.208500
								CHANNELS 3 Xrotation Yrotation Zrotation
								JOINT RightForeArm
								{
									OFFSET -29.972300 0.000000 0.000000
									CHANNELS 3 Xrotation Yrotation Zrotation
									JOINT RightHand
									{
										OFFSET -26.026505 0.000000 0.000000
										CHANNELS 3 Xrotation Yrotation Zrotation
										JOINT RightHandThumb1
										{
											OFFSET -12.240601 -7.148026 9.207092
											CHANNELS 3 Xrotation Yrotation Zrotation
											JOINT RightHandThumb2
											{
												OFFSET -4.138618 -2.389435 2.389433
												CHANNELS 3 Xrotation Yrotation Zrotation
												JOINT RightHandThumb3
												{
													OFFSET -2.726974 -1.574417 1.574421
													CHANNELS 3 Xrotation Yrotation Zrotation
													JOINT RightHandThumb4
													{
														OFFSET -3.941010 -2.275345 2.275343
														CHANNELS 3 Xrotation Yrotation Zrotation
														End Site
														{
															OFFSET 0.000000 0.000000 0.000000
														}
													}
												}
											}
										}
										JOINT RightHandIndex1
										{
											OFFSET -24.424698 -1.985657 5.953444
											CHANNELS 3 Xrotation Yrotation Zrotation
											JOINT RightHandIndex2
											{
												OFFSET -6.426697 0.000000 0.000000
												CHANNELS 3 Xrotation Yrotation Zrotation
												JOINT RightHandIndex3
												{
													OFFSET -5.337898 0.000000 0.000000
													CHANNELS 3 Xrotation Yrotation Zrotation
													JOINT RightHandIndex4
													{
														OFFSET -4.409401 0.000000 0.000000
														CHANNELS 3 Xrotation Yrotation Zrotation
														End Site
														{
															OFFSET 0.000000 0.000000 0.000000
														}
													}
												}
											}
										}
										JOINT RightHandMiddle1
										{
											OFFSET -23.810097 0.000000 0.000000
											CHANNELS 3 Xrotation Yrotation Zrotation
											JOINT RightHandMiddle2
											{
												OFFSET -7.176498 0.000000 0.000000
												CHANNELS 3 Xrotation Yrotation Zrotation
												JOINT RightHandMiddle3
												{
													OFFSET -6.774902 0.000000 0.000000
													CHANNELS 3 Xrotation Yrotation Zrotation
													JOINT RightHandMiddle4
													{
														OFFSET -5.403328 0.000000 0.000000
														CHANNELS 3 Xrotation Yrotation Zrotation
														End Site
														{
															OFFSET 0.000000 0.000000 0.000000
														}
													}
												}
											}
										}
										JOINT RightHandRing1
										{
											OFFSET -22.908302 -0.839325 -6.020576
											CHANNELS 3 Xrotation Yrotation Zrotation
											JOINT RightHandRing2
											{
												OFFSET -6.337502 0.000000 0.000000
												CHANNELS 3 Xrotation Yrotation Zrotation
												JOINT RightHandRing3
												{
													OFFSET -5.779297 0.000000 0.000000
													CHANNELS 3 Xrotation Yrotation Zrotation
													JOINT RightHandRing4
													{
														OFFSET -4.965698 0.000000 0.000000
														CHANNELS 3 Xrotation Yrotation Zrotation
														End Site
														{
															OFFSET 0.000000 0.000000 0.000000
														}
													}
												}
											}
										}
										JOINT RightHandPinky1
										{
											OFFSET -20.037003 -1.530334 -10.950259
											CHANNELS 3 Xrotation Yrotation Zrotation
											JOINT RightHandPinky2
											{
												OFFSET -5.254700 0.000000 0.000000
												CHANNELS 3 Xrotation Yrotation Zrotation
												JOINT RightHandPinky3
												{
													OFFSET -4.810204 0.000000 0.000000
													CHANNELS 3 Xrotation Yrotation Zrotation
													JOINT RightHandPinky4
													{
														OFFSET -3.647202 0.000000 0.000000
														CHANNELS 3 Xrotation Yrotation Zrotation
														End Site
														{
															OFFSET 0.000000 0.000000 0.000000
														}
													}
												}
											}
										}
									}
								}
							}
						}
					}
				}
			}
		}
	}
	JOINT LeftUpLeg
	{
		OFFSET 15.427100 -6.655098 0.678600
		CHANNELS 3 Xrotation Yrotation Zrotation
		JOINT LeftLeg
		{
			OFFSET 4.081073 -39.591068 13.024000
			CHANNELS 3 Xrotation Yrotation Zrotation
			JOINT LeftFoot
			{
				OFFSET -4.081074 -37.707932 -15.979700
				CHANNELS 3 Xrotation Yrotation Zrotation
				JOINT LeftToeBase
				{
					OFFSET 5.346399 -15.068900 20.645000
					CHANNELS 3 Xrotation Yrotation Zrotation
					JOINT LeftToe_End
					{
						OFFSET 2.754700 0.931300 11.300900
						CHANNELS 3 Xrotation Yrotation Zrotation
						End Site
						{
							OFFSET 0.000000 0.000000 0.000000
						}
					}
				}
			}
		}
	}
	JOINT RightUpLeg
	{
		OFFSET -15.569500 -6.655098 0.678600
		CHANNELS 3 Xrotation Yrotation Zrotation
		JOINT RightLeg
		{
			OFFSET -4.081825 -39.591045 13.023800
			CHANNELS 3 Xrotation Yrotation Zrotation
			JOINT RightFoot
			{
				OFFSET 4.081824 -37.707954 -15.979600
				CHANNELS 3 Xrotation Yrotation Zrotation
				JOINT RightToeBase
				{
					OFFSET -5.346400 -15.068900 20.645000
					CHANNELS 3 Xrotation Yrotation Zrotation
					JOINT RightToe_End
					{
						OFFSET -2.754700 0.931300 11.300900
						CHANNELS 3 Xrotation Yrotation Zrotation
						End Site
						{
							OFFSET 0.000000 0.000000 0.000000
						}
					}
				}
			}
		}
	}
}
MOTION
Frames: 4
Frame Time: 0.016667
7.461985 78.413155 -2.784397 162.587804 -85.394987 171.697063 27.113213 -10.683684 9.689419 22.828258 -3.476726 1.160363 0.000000 0.000000 0.000000 22.831256 -3.513606 1.117206 5.617715 -1.103826 -3.287039 -24.500425 16.764399 -15.915164 -0.000001 -0.000000 -0.000000 -0.574399 -9.850078 11.644901 0.000000 0.000000 0.000000 7.953497 23.817322 -68.381498 -0.000802 -83.763002 -0.000788 -0.593552 -15.951294 -35.333337 -6.141214 -11.690800 -6.761688 9.914096 42.595519 3.409889 -0.422812 8.108102 27.509106 -0.000000 0.000002 0.000000 0.255312 3.378216 -45.814344 5.654085 5.847762 -88.067448 2.162137 4.544810 -50.866365 0.000001 0.000001 0.000000 -0.461468 3.841590 -39.722686 6.450746 5.820350 -95.892857 2.182884 4.561570 -51.127733 -0.000000 -0.000000 -0.000000 0.469728 4.966829 -39.799437 8.181043 5.368611 -113.503004 3.200487 5.218119 -63.022982 0.000001 -0.000000 0.000001 -3.762428 9.063686 -45.253825 5.342542 5.829009 -85.005324 8.716833 5.103330 -119.369167 0.000001 -0.000001 -0.000000 6.747067 21.058556 15.296840 0.000000 0.000000 0.000000 -49.806860 49.425875 42.155928 0.000059 110.780990 -0.000035 -30.368650 3.752452 19.633066 -7.341114 13.749652 7.412344 9.855792 -44.489093 -3.903267 -0.115794 -14.513086 -28.973878 0.000001 0.000002 0.000001 -0.124377 -2.384784 45.108857 4.500579 -4.654545 88.071150 1.723224 -3.618378 50.920102 -0.000000 -0.000002 -0.000002 -0.761629 -2.932908 39.031068 5.133884 -4.632765 95.881629 1.739746 -3.631697 51.181340 0.000001 0.000003 0.000005 0.154756 -4.068821 39.122675 6.509733 -4.273601 113.462877 2.549581 -4.153924 63.067337 0.000001 0.000003 0.000001 -4.198883 -8.025518 44.637772 4.252921 -4.639641 85.014818 6.935965 -4.062625 119.322285 -0.000001 0.000001 0.000001 -5.709287 17.117448 17.883575 40.824580 5.408069 -9.005210 -20.910563 18.090057 -21.711937 -1.594031 0.000003 -0.000000 0.000000 0.000002 -0.000000 -48.072483 14.813362 -17.498222 47.005447 -1.613937 -7.356177 -4.495606 17.956352 16.965283 -0.013009 0.000008 -0.000003 -0.000000 0.000000 0.000001 
7.403678 78.276649 -3.085833 166.557646 -87.878430 175.793592 26.701825 -10.642639 9.531713 22.569689 -3.466844 1.087103 0.000000 0.000000 0.000000 22.571368 -3.500724 1.047263 5.617276 -0.871032 -3.422224 -22.991149 17.514673 -15.694491 0.000000 -0.000000 0.000000 -0.552074 -9.621082 10.944565 0.000000 0.000000 0.000000 4.435590 26.897731 -66.445433 0.003441 -87.948931 0.003366 -0.585571 -15.037143 -35.679552 -6.141215 -11.690801 -6.761690 9.914100 42.595519 3.409892 -0.422813 8.108103 27.509108 -0.000001 -0.000004 0.000001 0.255314 3.378217 -45.814341 5.654088 5.847759 -88.067448 2.162139 4.544809 -50.866369 0.000002 0.000001 -0.000000 -0.461466 3.841592 -39.722690 6.450748 5.820350 -95.892857 2.182885 4.561570 -51.127736 -0.000000 0.000001 -0.000000 0.469728 4.966829 -39.799441 8.181042 5.368611 -113.503011 3.200487 5.218118 -63.022975 0.000002 -0.000001 -0.000003 -3.762427 9.063687 -45.253818 5.342541 5.829006 -85.005324 8.716832 5.103330 -119.369167 -0.000001 -0.000000 -0.000000 6.677397 21.397934 15.512674 0.000000 0.000000 0.000000 -47.870760 45.703962 40.482958 0.000044 111.430397 -0.000053 -31.320095 4.487723 19.907210 -7.341108 13.749653 7.412337 9.855790 -44.489083 -3.903267 -0.115795 -14.513086 -28.973874 -0.000000 0.000000 -0.000001 -0.124374 -2.384785 45.108854 4.500579 -4.654542 88.071150 1.723226 -3.618376 50.920102 -0.000004 0.000000 -0.000002 -0.761628 -2.932905 39.031065 5.133885 -4.632763 95.881629 1.739744 -3.631697 51.181340 -0.000001 -0.000003 0.000002 0.154757 -4.068821 39.122668 6.509734 -4.273596 113.462877 2.549581 -4.153925 63.067337 -0.000001 0.000002 0.000000 -4.198886 -8.025515 44.637769 4.252920 -4.639642 85.014818 6.935961 -4.062626 119.322285 -0.000000 -0.000003 0.000004 -6.370622 16.765222 18.512869 41.279689 5.353959 -8.480028 -20.535377 15.919465 -21.994427 -1.594031 0.000007 -0.000000 -0.000000 -0.000002 -0.000000 -46.353096 14.571686 -18.788414 48.044169 -1.510185 -7.264678 -5.635759 16.057336 17.274962 -0.013009 0.000006 -0.000004 -0.000000 -0.000000 -0.000000 
7.347031 78.189163 -3.383328 139.093360 -90.619507 148.445760 26.188969 -10.633971 9.378990 22.258190 -3.473029 1.011024 0.000000 0.000000 0.000000 22.258243 -3.504554 0.974832 5.582345 -0.609718 -3.490659 -21.431937 18.334333 -15.324462 0.000004 -0.000000 0.000001 -0.520520 -9.531917 10.234635 0.000000 0.000000 0.000000 1.463528 28.835477 -64.955072 -0.001427 -92.579744 -0.001313 -0.628408 -14.115740 -35.772412 -6.141216 -11.690801 -6.761690 9.914101 42.595519 3.409888 -0.422814 8.108104 27.509108 0.000001 0.000000 -0.000000 0.255314 3.378219 -45.814348 5.654089 5.847763 -88.067448 2.162138 4.544807 -50.866362 0.000001 -0.000001 0.000001 -0.461463 3.841593 -39.722693 6.450749 5.820350 -95.892857 2.182886 4.561569 -51.127740 0.000002 0.000002 -0.000000 0.469731 4.966830 -39.799441 8.181043 5.368611 -113.503004 3.200488 5.218117 -63.022975 0.000002 0.000000 0.000002 -3.762427 9.063684 -45.253825 5.342539 5.829004 -85.005324 8.716832 5.103331 -119.369167 0.000000 -0.000002 -0.000001 6.665671 21.639404 15.541465 0.000000 0.000000 0.000000 -46.863803 42.548349 39.774480 0.000048 111.812710 -0.000052 -31.896287 5.342532 20.119386 -7.341110 13.749658 7.412338 9.855791 -44.489086 -3.903269 -0.115794 -14.513085 -28.973871 0.000000 -0.000001 0.000002 -0.124374 -2.384781 45.108854 4.500581 -4.654538 88.071150 1.723222 -3.618378 50.920098 -0.000001 -0.000003 -0.000004 -0.761626 -2.932904 39.031061 5.133884 -4.632764 95.881629 1.739741 -3.631698 51.181340 0.000001 -0.000000 -0.000000 0.154757 -4.068816 39.122671 6.509733 -4.273596 113.462877 2.549582 -4.153923 63.067330 0.000001 -0.000000 -0.000001 -4.198880 -8.025515 44.637769 4.252920 -4.639642 85.014818 6.935966 -4.062624 119.322285 0.000001 -0.000001 0.000001 -7.156211 16.349134 19.157984 41.679361 5.324817 -7.950468 -20.102215 13.565267 -22.214924 -1.594031 0.000008 -0.000000 0.000000 0.000002 -0.000000 -44.427017 14.177716 -20.179855 48.955272 -1.412745 -7.113157 -6.773343 14.053109 17.572839 -0.013009 0.000007 -0.000003 0.000000 -0.000001 -0.000001 
7.283150 78.132668 -3.673214 157.289066 -93.359513 166.781786 25.584968 -10.677128 9.179214 21.901878 -3.506260 0.903645 0.000000 0.000000 0.000000 21.899859 -3.536340 0.871498 5.510138 -0.303586 -3.526248 -19.806037 19.269331 -14.830571 0.000002 0.000002 -0.000000 -0.487515 -9.491397 9.564242 0.000000 0.000000 0.000000 -0.653378 29.569771 -64.021071 -0.000482 -97.278676 -0.000491 -0.727241 -13.207229 -35.636741 -6.141213 -11.690799 -6.761687 9.914107 42.595525 3.409891 -0.422810 8.108100 27.509108 0.000002 -0.000000 -0.000002 0.255315 3.378219 -45.814341 5.654088 5.847761 -88.067448 2.162140 4.544807 -50.866362 -0.000001 0.000002 -0.000000 -0.461465 3.841596 -39.722686 6.450750 5.820351 -95.892864 2.182883 4.561571 -51.127729 -0.000002 0.000003 -0.000001 0.469733 4.966830 -39.799441 8.181038 5.368608 -113.503011 3.200493 5.218118 -63.022975 0.000001 -0.000001 0.000001 -3.762424 9.063688 -45.253818 5.342544 5.829006 -85.005324 8.716836 5.103330 -119.369167 -0.000002 0.000003 0.000001 6.712777 21.856322 15.378774 0.000000 0.000000 0.000000 -46.521528 39.994128 39.770040 -0.000110 111.959081 0.000106 -32.012427 6.164907 20.344919 -7.341109 13.749654 7.412340 9.855793 -44.489089 -3.903273 -0.115794 -14.513085 -28.973867 0.000001 0.000001 0.000000 -0.124374 -2.384786 45.108857 4.500579 -4.654541 88.071150 1.723227 -3.618380 50.920095 -0.000001 -0.000002 0.000000 -0.761627 -2.932907 39.031061 5.133884 -4.632762 95.881629 1.739747 -3.631699 51.181340 0.000001 -0.000000 0.000000 0.154758 -4.068821 39.122668 6.509733 -4.273595 113.462877 2.549584 -4.153925 63.067337 -0.000001 0.000001 0.000000 -4.198885 -8.025518 44.637769 4.252920 -4.639639 85.014818 6.935966 -4.062624 119.322285 0.000002 -0.000003 0.000001 -7.997240 15.921400 19.799486 42.004448 5.316688 -7.500440 -19.636792 11.056422 -22.351743 -1.594031 0.000007 -0.000000 0.000000 -0.000002 -0.000000 -42.386416 13.660388 -21.656848 49.756166 -1.321282 -6.871302 -7.890608 12.050411 17.832352 -0.013009 0.000008 -0.000003 -0.000000 -0.000001 0.000000 
